<svg xmlns="http://www.w3.org/2000/svg" xmlns:xlink="http://www.w3.org/1999/xlink" version="1.1" x="0px" y="0px" viewBox="0 0 90 90" enable-background="new 0 0 90 90" xml:space="preserve"><g><g><path d="M59.801,29.191"></path></g></g><path d="M64.281,53.992c0.972-0.611,1.938-1.263,2.879-1.948c7.907-5.744,0.834-16.025-6.653-26.912  c-2.271-3.3-4.84-7.034-7.034-10.729c-1.098-3.749-4.553-6.35-8.472-6.35c-3.917,0-7.374,2.601-8.472,6.349  c-2.194,3.695-4.764,7.43-7.034,10.731c-7.487,10.885-14.562,21.168-6.653,26.91c0.941,0.686,1.905,1.338,2.878,1.949  c-4.725,8.138-7.315,18.876-7.315,30.424c0,1.675,1.363,3.037,3.038,3.037H68.56c1.674,0,3.036-1.362,3.036-3.037  C71.596,72.867,69.007,62.131,64.281,53.992z M37.884,19.108c0.944,3.032,3.774,5.232,7.117,5.232c3.345,0,6.173-2.2,7.117-5.232  c1.74,2.738,3.592,5.434,5.409,8.073c6.741,9.8,12.563,18.265,7.509,21.937c-1.291,0.938-2.597,1.792-3.89,2.549  c-2.531-3.53-5.506-6.249-8.801-7.905c1.574-3.335,3.027-7.56,3.027-10.345c0-7.017-6.748-7.017-10.372-7.017  c-3.625,0-10.372,0-10.372,7.017c0,2.786,1.451,7.01,3.025,10.345c-3.295,1.656-6.268,4.377-8.801,7.905  c-1.291-0.757-2.597-1.61-3.888-2.547c-5.057-3.674,0.767-12.137,7.509-21.938C34.29,24.542,36.143,21.847,37.884,19.108z   M40.501,46.122c0.444-0.169,0.793-0.521,0.961-0.965c0.167-0.445,0.135-0.939-0.088-1.359c-1.774-3.347-3.149-7.323-3.392-9.697  c1.917,0.263,3.586,1.025,4.869,2.257c0.534,0.512,1.007,1.146,1.445,1.937c0.194,0.351,0.564,0.569,0.966,0.569l0,0  c0.402,0,0.771-0.22,0.965-0.571c0.437-0.787,0.91-1.421,1.445-1.935c1.163-1.116,2.641-1.853,4.336-2.177  c-0.263,2.382-1.628,6.308-3.384,9.617c-0.222,0.42-0.254,0.914-0.087,1.359c0.167,0.443,0.517,0.796,0.961,0.965  c6.837,2.606,12.398,10.852,15.274,21.607c-2.965,0.687-6.487,0.043-9.86-1.839c-0.509-0.283-1.152-0.123-1.467,0.368  c-1.859,2.892-5.018,4.618-8.445,4.618c-3.43,0-6.587-1.727-8.446-4.617c-0.315-0.49-0.959-0.651-1.468-0.369  c-3.365,1.879-6.91,2.514-9.858,1.837C28.104,56.974,33.666,48.73,40.501,46.122z M38.149,31.895  c0.517-1.493,2.181-2.182,6.852-2.182c4.746,0,6.386,0.711,6.873,2.256c-2.229,0.372-4.189,1.315-5.731,2.794  c-0.311,0.3-0.604,0.626-0.88,0.982c-0.278-0.358-0.571-0.684-0.883-0.982C42.723,33.172,40.586,32.201,38.149,31.895z   M24.697,69.866c3.227,0.749,6.987,0.205,10.583-1.58c2.313,3.023,5.876,4.8,9.721,4.8c3.844,0,7.406-1.776,9.719-4.8  c3.601,1.788,7.345,2.345,10.585,1.588c0.919,4.039,1.469,8.383,1.576,12.886H23.119C23.227,78.254,23.778,73.907,24.697,69.866z"></path></svg>