<svg xmlns="http://www.w3.org/2000/svg" xmlns:xlink="http://www.w3.org/1999/xlink" version="1.1" x="0px" y="0px" viewBox="0 0 90 90" enable-background="new 0 0 90 90" xml:space="preserve"><g><g><path d="M59.801,29.191"></path></g></g><path d="M58.673,28.9"></path><path d="M53.105,10.479c0,4.478-3.625,8.105-8.101,8.105c-4.479,0-8.11-3.628-8.11-8.105c0-4.477,3.632-8.106,8.11-8.106  C49.48,2.373,53.105,6.003,53.105,10.479z"></path><polygon points="48.293,19.933 44.999,21.547 41.707,19.933 41.707,24.702 44.999,23.088 48.293,24.702 "></polygon><path d="M55.916,22.316h-4.709l-6.208,13.312l-6.205-13.312h-4.71c-1.296,0-2.348,1.053-2.348,2.346c0,0.115,0.01,0.229,0.025,0.338  l0.087,0.569L36.144,52.2v35.427h7.654v-26.42c0-0.662,0.539-1.201,1.2-1.201c0.664,0,1.203,0.539,1.203,1.201v26.42h7.648V52.2  l4.342-26.911L58.238,25c0.016-0.108,0.025-0.223,0.025-0.338C58.264,23.369,57.213,22.316,55.916,22.316z"></path></svg>